<?xml version="1.0" encoding="utf-8"?><svg xmlns="http://www.w3.org/2000/svg" xmlns:xlink="http://www.w3.org/1999/xlink"><symbol viewBox="0 0 36 40" id="apple" xmlns="http://www.w3.org/2000/svg"><path d="M27.526 10.078c2.037.365 3.708 1.459 5.015 3.281 1.149 1.615 1.933 3.647 2.35 6.094a19.37 19.37 0 01-.078 6.719c-.627 3.697-1.88 6.797-3.761 9.297C28.805 38.489 25.984 40 22.589 40c-.836 0-1.75-.26-2.743-.781a4.261 4.261 0 00-2.273-.625c-.836 0-1.592.208-2.272.625-.993.52-1.907.781-2.743.781-3.395 0-6.216-1.51-8.463-4.531-1.88-2.5-3.134-5.6-3.76-9.297a19.35 19.35 0 01-.079-6.719c.417-2.447 1.201-4.479 2.35-6.094 1.307-1.822 2.978-2.916 5.015-3.28 1.254-.21 2.977-.027 5.172.546 1.88.521 3.474 1.146 4.78 1.875 1.306-.729 2.9-1.354 4.78-1.875 2.195-.573 3.92-.755 5.173-.547zm-4.31-3.203c-.731.677-1.699 1.172-2.9 1.484-.836.26-1.75.391-2.742.391l-1.176-.078c-.104-.729-.104-1.563 0-2.5.21-1.875.81-3.307 1.802-4.297.732-.677 1.699-1.172 2.9-1.484C21.936.13 22.85 0 23.843 0l1.175.078.078 1.172c0 .99-.13 1.9-.391 2.734-.313 1.198-.809 2.162-1.49 2.891z"/></symbol></svg>